<mxfile host="app.diagrams.net" agent="Mozilla/5.0 (Macintosh; Intel Mac OS X 10.15; rv:131.0) Gecko/20100101 Firefox/131.0" version="24.8.3">
  <diagram name="Page-1" id="sRfTUuLe4F5Ekj_UatYm">
    <mxGraphModel dx="954" dy="618" grid="1" gridSize="10" guides="1" tooltips="1" connect="1" arrows="1" fold="1" page="1" pageScale="1" pageWidth="850" pageHeight="1100" math="0" shadow="0">
      <root>
        <mxCell id="0" />
        <mxCell id="1" parent="0" />
        <mxCell id="rm7ksAYjDSnZeUUqBcqj-16" value="" style="rounded=1;whiteSpace=wrap;html=1;fillColor=#f5f5f5;fontColor=#333333;strokeColor=#666666;" vertex="1" parent="1">
          <mxGeometry x="120" y="280" width="330" height="230" as="geometry" />
        </mxCell>
        <mxCell id="rm7ksAYjDSnZeUUqBcqj-4" value="" style="rounded=0;whiteSpace=wrap;html=1;fillColor=#dae8fc;strokeColor=#6c8ebf;" vertex="1" parent="1">
          <mxGeometry x="150" y="330" width="180" height="140" as="geometry" />
        </mxCell>
        <mxCell id="rm7ksAYjDSnZeUUqBcqj-2" value="&lt;div&gt;MTA API&lt;/div&gt;" style="rounded=0;whiteSpace=wrap;html=1;fillColor=#fff2cc;strokeColor=#d6b656;" vertex="1" parent="1">
          <mxGeometry x="190" y="70" width="140" height="90" as="geometry" />
        </mxCell>
        <mxCell id="rm7ksAYjDSnZeUUqBcqj-3" value="Scripts" style="rounded=0;whiteSpace=wrap;html=1;" vertex="1" parent="1">
          <mxGeometry x="250" y="370" width="70" height="70" as="geometry" />
        </mxCell>
        <mxCell id="rm7ksAYjDSnZeUUqBcqj-6" value="Docker Containers" style="rounded=0;whiteSpace=wrap;html=1;fillColor=#dae8fc;strokeColor=none;" vertex="1" parent="1">
          <mxGeometry x="160" y="340" width="105" height="10" as="geometry" />
        </mxCell>
        <mxCell id="rm7ksAYjDSnZeUUqBcqj-9" value="Users" style="ellipse;whiteSpace=wrap;html=1;aspect=fixed;fillColor=#d80073;fontColor=#ffffff;strokeColor=#A50040;" vertex="1" parent="1">
          <mxGeometry x="590" y="60" width="100" height="100" as="geometry" />
        </mxCell>
        <mxCell id="rm7ksAYjDSnZeUUqBcqj-10" value="" style="whiteSpace=wrap;html=1;aspect=fixed;fillColor=#e1d5e7;strokeColor=#9673a6;" vertex="1" parent="1">
          <mxGeometry x="575" y="200" width="130" height="130" as="geometry" />
        </mxCell>
        <mxCell id="rm7ksAYjDSnZeUUqBcqj-11" value="" style="endArrow=classic;html=1;rounded=0;entryX=0.5;entryY=0;entryDx=0;entryDy=0;exitX=0.5;exitY=1;exitDx=0;exitDy=0;" edge="1" parent="1" target="rm7ksAYjDSnZeUUqBcqj-10">
          <mxGeometry width="50" height="50" relative="1" as="geometry">
            <mxPoint x="640" y="160" as="sourcePoint" />
            <mxPoint x="465" y="320" as="targetPoint" />
          </mxGeometry>
        </mxCell>
        <mxCell id="rm7ksAYjDSnZeUUqBcqj-14" value="" style="endArrow=classic;html=1;rounded=0;entryX=0;entryY=0.5;entryDx=0;entryDy=0;exitX=1;exitY=0.5;exitDx=0;exitDy=0;" edge="1" parent="1" source="rm7ksAYjDSnZeUUqBcqj-44" target="rm7ksAYjDSnZeUUqBcqj-10">
          <mxGeometry width="50" height="50" relative="1" as="geometry">
            <mxPoint x="480" y="260" as="sourcePoint" />
            <mxPoint x="520" y="215" as="targetPoint" />
          </mxGeometry>
        </mxCell>
        <mxCell id="rm7ksAYjDSnZeUUqBcqj-17" value="Local Machine" style="text;html=1;align=center;verticalAlign=middle;whiteSpace=wrap;rounded=0;horizontal=0;rotation=90;" vertex="1" parent="1">
          <mxGeometry x="240" y="440" width="100" height="100" as="geometry" />
        </mxCell>
        <mxCell id="rm7ksAYjDSnZeUUqBcqj-20" value="&lt;div&gt;Google Calendar&lt;/div&gt;" style="rounded=1;whiteSpace=wrap;html=1;fillColor=#f8cecc;strokeColor=#b85450;" vertex="1" parent="1">
          <mxGeometry x="580" y="420" width="120" height="60" as="geometry" />
        </mxCell>
        <mxCell id="rm7ksAYjDSnZeUUqBcqj-21" value="" style="endArrow=classic;html=1;rounded=0;entryX=0;entryY=0.5;entryDx=0;entryDy=0;exitX=1;exitY=0.5;exitDx=0;exitDy=0;" edge="1" parent="1" source="rm7ksAYjDSnZeUUqBcqj-3" target="rm7ksAYjDSnZeUUqBcqj-20">
          <mxGeometry relative="1" as="geometry">
            <mxPoint x="400" y="300" as="sourcePoint" />
            <mxPoint x="500" y="300" as="targetPoint" />
          </mxGeometry>
        </mxCell>
        <mxCell id="rm7ksAYjDSnZeUUqBcqj-22" value="&lt;div&gt;Calendar API&lt;/div&gt;" style="edgeLabel;resizable=0;html=1;;align=center;verticalAlign=middle;" connectable="0" vertex="1" parent="rm7ksAYjDSnZeUUqBcqj-21">
          <mxGeometry relative="1" as="geometry" />
        </mxCell>
        <mxCell id="rm7ksAYjDSnZeUUqBcqj-28" value="" style="endArrow=classic;html=1;rounded=0;entryX=0.5;entryY=1;entryDx=0;entryDy=0;exitX=0.5;exitY=0;exitDx=0;exitDy=0;" edge="1" parent="1" source="rm7ksAYjDSnZeUUqBcqj-20" target="rm7ksAYjDSnZeUUqBcqj-10">
          <mxGeometry relative="1" as="geometry">
            <mxPoint x="385" y="340" as="sourcePoint" />
            <mxPoint x="485" y="340" as="targetPoint" />
          </mxGeometry>
        </mxCell>
        <mxCell id="rm7ksAYjDSnZeUUqBcqj-29" value="&lt;div&gt;Sharing URLs&lt;/div&gt;" style="edgeLabel;resizable=0;html=1;;align=center;verticalAlign=middle;" connectable="0" vertex="1" parent="rm7ksAYjDSnZeUUqBcqj-28">
          <mxGeometry relative="1" as="geometry" />
        </mxCell>
        <mxCell id="rm7ksAYjDSnZeUUqBcqj-30" value="" style="endArrow=classic;html=1;rounded=0;exitX=0.5;exitY=1;exitDx=0;exitDy=0;" edge="1" parent="1" source="rm7ksAYjDSnZeUUqBcqj-2" target="rm7ksAYjDSnZeUUqBcqj-3">
          <mxGeometry relative="1" as="geometry">
            <mxPoint x="400" y="300" as="sourcePoint" />
            <mxPoint x="500" y="300" as="targetPoint" />
          </mxGeometry>
        </mxCell>
        <mxCell id="rm7ksAYjDSnZeUUqBcqj-31" value="&lt;div&gt;Alerts &amp;amp; Planned Work&lt;/div&gt;" style="edgeLabel;resizable=0;html=1;;align=center;verticalAlign=middle;" connectable="0" vertex="1" parent="rm7ksAYjDSnZeUUqBcqj-30">
          <mxGeometry relative="1" as="geometry" />
        </mxCell>
        <mxCell id="rm7ksAYjDSnZeUUqBcqj-32" value="&lt;font style=&quot;font-size: 9px;&quot;&gt;PostgreSQL&lt;/font&gt;" style="shape=cylinder3;whiteSpace=wrap;html=1;boundedLbl=1;backgroundOutline=1;size=15;" vertex="1" parent="1">
          <mxGeometry x="160" y="365" width="60" height="80" as="geometry" />
        </mxCell>
        <mxCell id="rm7ksAYjDSnZeUUqBcqj-35" value="" style="endArrow=classic;startArrow=classic;html=1;rounded=0;exitX=1;exitY=0.5;exitDx=0;exitDy=0;exitPerimeter=0;entryX=0;entryY=0.5;entryDx=0;entryDy=0;" edge="1" parent="1" source="rm7ksAYjDSnZeUUqBcqj-32" target="rm7ksAYjDSnZeUUqBcqj-3">
          <mxGeometry width="50" height="50" relative="1" as="geometry">
            <mxPoint x="430" y="330" as="sourcePoint" />
            <mxPoint x="480" y="280" as="targetPoint" />
          </mxGeometry>
        </mxCell>
        <mxCell id="rm7ksAYjDSnZeUUqBcqj-37" value="&lt;div&gt;GitHub Pages&lt;/div&gt;" style="text;html=1;align=center;verticalAlign=middle;whiteSpace=wrap;rounded=0;" vertex="1" parent="1">
          <mxGeometry x="570" y="210" width="120" height="20" as="geometry" />
        </mxCell>
        <mxCell id="rm7ksAYjDSnZeUUqBcqj-40" value="Website" style="rounded=1;whiteSpace=wrap;html=1;" vertex="1" parent="1">
          <mxGeometry x="600" y="250" width="80" height="50" as="geometry" />
        </mxCell>
        <mxCell id="rm7ksAYjDSnZeUUqBcqj-44" value="&lt;div&gt;Website&lt;/div&gt;" style="rounded=0;whiteSpace=wrap;html=1;" vertex="1" parent="1">
          <mxGeometry x="340" y="290" width="90" height="100" as="geometry" />
        </mxCell>
      </root>
    </mxGraphModel>
  </diagram>
</mxfile>
